<?xml version="1.0" standalone="no"?><!DOCTYPE svg PUBLIC "-//W3C//DTD SVG 1.1//EN" "http://www.w3.org/Graphics/SVG/1.1/DTD/svg11.dtd"><svg t="1620746491942" class="icon" viewBox="0 0 1024 1024" version="1.1" xmlns="http://www.w3.org/2000/svg" p-id="1902" xmlns:xlink="http://www.w3.org/1999/xlink" width="128" height="128"><defs><style type="text/css"></style></defs><path d="M917.332951 170.667022a106.666622 106.666622 0 0 1 106.666622 106.666622v639.999734a106.666622 106.666622 0 0 1-106.666622 106.666622H106.666622a106.666622 106.666622 0 0 1-106.666622-106.666622V277.333644a106.666622 106.666622 0 0 1 106.666622-106.666622z m0 85.333298H106.666622a21.333324 21.333324 0 0 0-21.333324 21.333324v639.999734a21.333324 21.333324 0 0 0 21.333324 21.333324h810.666329a21.333324 21.333324 0 0 0 21.333325-21.333324V277.333644a21.333324 21.333324 0 0 0-21.333325-21.333324z m-300.949208 92.863961l1.002666 3.455999L673.301053 576.000187H810.666329a42.666649 42.666649 0 0 1 42.559982 39.46665L853.332978 618.666836a42.666649 42.666649 0 0 1-39.46665 42.559982L810.666329 661.333484h-170.666596a42.666649 42.666649 0 0 1-40.426649-29.013321l-0.96-3.306665-28.479988-113.855953-102.997291 308.991872c-11.349329 34.090652-56.682643 39.381317-75.946635 10.261329l-1.813332-3.029332L294.890544 661.333484H213.333244a42.666649 42.666649 0 0 1-42.559982-39.46665L170.666596 618.666836a42.666649 42.666649 0 0 1 39.46665-42.559983L213.333244 576.000187h106.666623a42.666649 42.666649 0 0 1 35.434652 18.922658l1.855999 3.029333 59.562642 107.178622 118.677284-355.946519c13.098661-39.33865 68.223972-38.378651 80.853299-0.32zM767.99968 0.000427a42.666649 42.666649 0 0 1 3.199999 85.226631L767.99968 85.333724H255.999893a42.666649 42.666649 0 0 1-3.199998-85.226631L255.999893 0.000427h511.999787z" p-id="1903"></path></svg>